<?xml version="1.0"?>
<mxfile host="Electron" modified="2022-07-15T08:34:04.884Z" agent="5.0 (X11; Linux x86_64) AppleWebKit/537.36 (KHTML, like Gecko) draw.io/18.1.3 Chrome/100.0.4896.143 Electron/18.2.3 Safari/537.36" etag="lqvm5lYi26p3dRVPrR4G" version="18.1.3">
  <diagram id="UbBcftxOWnzCqY7cNw6h" name="Page-1">
    <mxGraphModel dx="2" dy="1" grid="1" gridSize="10" guides="1" tooltips="1" connect="1" arrows="1" fold="1" page="1" pageScale="1" pageWidth="850" pageHeight="1100" math="0" shadow="0">
      <root>
        <mxCell id="0"/>
        <mxCell id="1" parent="0"/>
        <mxCell id="IQn3oVnuThHGhUpThT8S-1" value="tag" style="rounded=0;whiteSpace=wrap;html=1;fontFamily=mono;" parent="1" vertex="1">
          <mxGeometry x="80" y="80" width="260" height="20" as="geometry"/>
        </mxCell>
        <mxCell id="IQn3oVnuThHGhUpThT8S-2" value="1bit:5px" style="text;html=1;align=center;verticalAlign=middle;resizable=0;points=[];autosize=1;strokeColor=none;fillColor=none;fontFamily=mono;" parent="1" vertex="1">
          <mxGeometry x="75" y="40" width="70" height="20" as="geometry"/>
        </mxCell>
        <mxCell id="IQn3oVnuThHGhUpThT8S-3" value="0" style="text;html=1;align=left;verticalAlign=middle;resizable=0;points=[];autosize=1;strokeColor=none;fillColor=none;fontFamily=mono;" parent="1" vertex="1">
          <mxGeometry x="80" y="60" width="20" height="20" as="geometry"/>
        </mxCell>
        <mxCell id="IQn3oVnuThHGhUpThT8S-4" value="&lt;font style=&quot;font-size: 10px;&quot;&gt;npc&lt;/font&gt;" style="rounded=0;whiteSpace=wrap;html=1;fontFamily=mono;" parent="1" vertex="1">
          <mxGeometry x="380" y="80" width="20" height="20" as="geometry"/>
        </mxCell>
        <mxCell id="IQn3oVnuThHGhUpThT8S-5" value="-" style="rounded=0;whiteSpace=wrap;html=1;fontFamily=mono;" parent="1" vertex="1">
          <mxGeometry x="340" y="80" width="40" height="20" as="geometry"/>
        </mxCell>
        <mxCell id="IQn3oVnuThHGhUpThT8S-6" value="5&lt;br&gt;1" style="text;html=1;align=left;verticalAlign=middle;resizable=0;points=[];autosize=1;strokeColor=none;fillColor=none;fontFamily=mono;" parent="1" vertex="1">
          <mxGeometry x="330" y="50" width="20" height="30" as="geometry"/>
        </mxCell>
        <mxCell id="IQn3oVnuThHGhUpThT8S-7" value="5&lt;br&gt;2" style="text;html=1;align=left;verticalAlign=middle;resizable=0;points=[];autosize=1;strokeColor=none;fillColor=none;fontFamily=mono;" parent="1" vertex="1">
          <mxGeometry x="340" y="50" width="20" height="30" as="geometry"/>
        </mxCell>
        <mxCell id="IQn3oVnuThHGhUpThT8S-8" value="5&lt;br&gt;9" style="text;html=1;align=left;verticalAlign=middle;resizable=0;points=[];autosize=1;strokeColor=none;fillColor=none;fontFamily=mono;" parent="1" vertex="1">
          <mxGeometry x="370" y="50" width="20" height="30" as="geometry"/>
        </mxCell>
        <mxCell id="IQn3oVnuThHGhUpThT8S-9" value="6&lt;br&gt;0" style="text;html=1;align=left;verticalAlign=middle;resizable=0;points=[];autosize=1;strokeColor=none;fillColor=none;fontFamily=mono;" parent="1" vertex="1">
          <mxGeometry x="380" y="50" width="20" height="30" as="geometry"/>
        </mxCell>
        <mxCell id="IQn3oVnuThHGhUpThT8S-10" value="6&lt;br&gt;3" style="text;html=1;align=left;verticalAlign=middle;resizable=0;points=[];autosize=1;strokeColor=none;fillColor=none;fontFamily=mono;" parent="1" vertex="1">
          <mxGeometry x="390" y="50" width="20" height="30" as="geometry"/>
        </mxCell>
        <mxCell id="IQn3oVnuThHGhUpThT8S-11" value="uop0" style="rounded=0;whiteSpace=wrap;html=1;fontFamily=mono;" parent="1" vertex="1">
          <mxGeometry x="80" y="100" width="160" height="20" as="geometry"/>
        </mxCell>
        <mxCell id="IQn3oVnuThHGhUpThT8S-12" value="uop1" style="rounded=0;whiteSpace=wrap;html=1;fontFamily=mono;" parent="1" vertex="1">
          <mxGeometry x="240" y="100" width="160" height="20" as="geometry"/>
        </mxCell>
        <mxCell id="IQn3oVnuThHGhUpThT8S-13" value="uop2" style="rounded=0;whiteSpace=wrap;html=1;fontFamily=mono;" parent="1" vertex="1">
          <mxGeometry x="80" y="120" width="160" height="20" as="geometry"/>
        </mxCell>
        <mxCell id="IQn3oVnuThHGhUpThT8S-14" value="uop3" style="rounded=0;whiteSpace=wrap;html=1;fontFamily=mono;" parent="1" vertex="1">
          <mxGeometry x="240" y="120" width="160" height="20" as="geometry"/>
        </mxCell>
        <mxCell id="IQn3oVnuThHGhUpThT8S-15" value="imm" style="rounded=0;whiteSpace=wrap;html=1;fontFamily=mono;" parent="1" vertex="1">
          <mxGeometry x="80" y="140" width="320" height="20" as="geometry"/>
        </mxCell>
        <mxCell id="IQn3oVnuThHGhUpThT8S-16" value="&lt;b&gt;uop slot&lt;/b&gt;" style="text;html=1;align=center;verticalAlign=middle;resizable=0;points=[];autosize=1;strokeColor=none;fillColor=none;fontFamily=mono;" parent="1" vertex="1">
          <mxGeometry x="205" y="40" width="70" height="20" as="geometry"/>
        </mxCell>
      </root>
    </mxGraphModel>
  </diagram>
</mxfile>
